<?xml version="1.0" encoding="UTF-8"?>
<svg width="31px" height="30px" viewBox="0 0 31 30" version="1.1" xmlns="http://www.w3.org/2000/svg" xmlns:xlink="http://www.w3.org/1999/xlink">
    <!-- Generator: Sketch 50.2 (55047) - http://www.bohemiancoding.com/sketch -->
    <title>apple-app-store-icon</title>
    <desc>Created with Sketch.</desc>
    <defs>
        <polygon id="path-1" points="0.0354272727 0.43304 8.44118182 0.43304 8.44118182 11.92504 0.0354272727 11.92504"></polygon>
    </defs>
    <g id="Pages" stroke="none" stroke-width="1" fill="none" fill-rule="evenodd">
        <g id="apple-app-store-icon">
            <path d="M31,14.9995638 C31,23.2844805 24.0606299,30 15.4995493,30 C6.93937015,30 0,23.2844805 0,14.9995638 C0,6.7155195 6.93937015,0 15.4995493,0 C24.0606299,0 31,6.7155195 31,14.9995638" id="Fill-6" fill="#000000" opacity="0.08"></path>
            <g id="Group" transform="translate(7.000000, 6.000000)">
                <g id="Group-3" transform="translate(9.000000, 4.000000)">
                    <mask id="mask-2" fill="white">
                        <use xlink:href="#path-1"></use>
                    </mask>
                    <g id="Clip-2"></g>
                    <path d="M8.44142727,7.38344 C8.44142727,7.69464 8.31297273,7.97384 8.10351818,8.17784 C7.89651818,8.38024 7.60933636,8.50584 7.2927,8.50584 L5.74060909,8.50584 L6.76415455,10.23944 C7.08160909,10.77784 6.89424545,11.46424 6.34442727,11.77464 C6.16360909,11.87624 5.96642727,11.92504 5.77251818,11.92504 C5.37406364,11.92504 4.9887,11.72424 4.77597273,11.36264 L3.08888182,8.50584 L1.76260909,6.26104 L0.491154545,4.10664 C0.487881818,4.10264 0.485427273,4.09944 0.483790909,4.09384 L0.395427273,3.94744 C0.392154545,3.93944 0.388063636,3.93384 0.383972727,3.92744 C0.161427273,3.51864 0.0354272727,3.05144 0.0354272727,2.55704 C0.0354272727,1.72104 0.395427273,0.96584 0.973063636,0.43304 L3.87679091,5.35144 L4.41351818,6.26104 L7.2927,6.26104 C7.92597273,6.26104 8.44142727,6.76344 8.44142727,7.38344" id="Fill-1" fill="#1898FA" mask="url(#mask-2)"></path>
                </g>
                <path d="M4,13.6935891 L2.97869833,15.4676931 C2.78229416,15.8099445 2.42650046,16 2.05862035,16 C1.8795904,16 1.69753884,15.9538112 1.5305953,15.8576477 C1.02296607,15.5638566 0.849979321,14.9141848 1.14156397,14.4045936 L1.89923081,13.090106 C2.08657017,13.0318021 2.28524054,13 2.49222032,13 C3.09578543,13 3.63589689,13.2680464 4,13.6935891" id="Fill-4" fill="#FFFFFF"></path>
                <path d="M11,11.3673562 C11,11.5938007 10.9535544,11.8070164 10.8675157,12 L1.06291964,12 C0.474354537,12 0,11.5128721 0,10.9121328 L0,10.9043512 C0,10.3028338 0.474354537,9.81804033 1.06291964,9.81804033 L3.68214854,9.81804033 L7.22876722,3.54762986 L6.1490967,1.64269503 C5.85519485,1.11743726 6.0280335,0.44821996 6.54198103,0.147850334 C6.70720565,0.0474677388 6.88765834,0 7.06963383,0 C7.43891465,0 7.80134284,0.193761753 7.99778501,0.547046236 L8.45767287,1.36489203 L8.91832214,0.547046236 C9.11400291,0.193761753 9.47643109,0 9.84571191,0 C10.0276874,0 10.2096629,0.0474677388 10.3756489,0.147850334 C10.8873122,0.44821996 11.0609123,1.11743726 10.7677719,1.64269503 L9.68886274,3.54762986 L8.45767287,5.73036768 L6.1490967,9.81804033 L9.48328373,9.81804033 C10.3200664,9.81804033 11,10.5121587 11,11.3673562" id="Fill-6" fill="#1898FA"></path>
                <path d="M4,13.6935891 L2.97869833,15.4676931 C2.78229416,15.8099445 2.42650046,16 2.05862035,16 C1.8795904,16 1.69753884,15.9538112 1.5305953,15.8576477 C1.02296607,15.5638566 0.849979321,14.9141848 1.14156397,14.4045936 L1.89923081,13.090106 C2.08657017,13.0318021 2.28524054,13 2.49222032,13 C3.09578543,13 3.63589689,13.2680464 4,13.6935891" id="Fill-8" fill="#1898FA"></path>
            </g>
        </g>
    </g>
</svg>