<?xml version="1.0" encoding="UTF-8"?>
<svg width="90px" height="26px" viewBox="0 0 90 26" version="1.1" xmlns="http://www.w3.org/2000/svg" xmlns:xlink="http://www.w3.org/1999/xlink">
    <!-- Generator: Sketch 51.3 (57544) - http://www.bohemiancoding.com/sketch -->
    <title>avaya-logo-red</title>
    <desc>Created with Sketch.</desc>
    <defs></defs>
    <g id="Symbols" stroke="none" stroke-width="1" fill="none" fill-rule="evenodd">
        <g id="Footer" transform="translate(-120.000000, -516.000000)" fill="#DA291C">
            <g id="Group-65">
                <g id="Group-59" transform="translate(0.000000, 492.000000)">
                    <g id="avaya-logo-red" transform="translate(120.000000, 24.000000)">
                        <polygon id="Fill-1" points="78.0897541 0 69.0440164 18.5370492 72.6912295 18.5370492 74.0087705 15.7234426 82.2695902 15.7234426 81.2781148 13.2727869 75.1581148 13.2727869 79.3482787 4.22409836 86.0097541 18.5370492 89.6569672 18.5370492 80.6127049 0"></polygon>
                        <polygon id="Fill-2" points="9.04721311 0 0 18.5370492 3.64868852 18.5370492 4.96770492 15.7234426 13.2240984 15.7234426 12.2355738 13.2727869 6.11704918 13.2727869 10.3072131 4.22409836 16.9672131 18.5370492 20.6129508 18.5370492 11.5701639 0"></polygon>
                        <polygon id="Fill-3" points="43.4390164 0 34.3932787 18.5370492 38.0404918 18.5370492 39.3580328 15.7234426 47.6188525 15.7234426 46.627377 13.2727869 40.507377 13.2727869 44.6990164 4.22409836 51.3604918 18.5370492 55.0062295 18.5370492 45.9619672 0"></polygon>
                        <polygon id="Fill-4" points="34.1718197 0 27.5118197 14.5844262 20.8473934 0 17.2090328 0 26.2473934 18.5370492 26.3978852 18.5370492 28.6198525 18.5370492 28.7747705 18.5370492 37.816082 0"></polygon>
                        <polygon id="Fill-5" points="68.8982459 0 61.9608689 14.857377 55.5723443 0 51.928082 0 60.1534918 18.5370492 56.5682459 25.4965574 60.0561148 25.4965574 72.538082 0"></polygon>
                    </g>
                </g>
            </g>
        </g>
    </g>
</svg>