<?xml version="1.0" encoding="UTF-8"?>
<svg width="87px" height="25px" viewBox="0 0 87 25" version="1.1" xmlns="http://www.w3.org/2000/svg" xmlns:xlink="http://www.w3.org/1999/xlink">
    <!-- Generator: Sketch 51.3 (57544) - http://www.bohemiancoding.com/sketch -->
    <title>avaya-logo-white</title>
    <desc>Created with Sketch.</desc>
    <defs></defs>
    <g id="Pages" stroke="none" stroke-width="1" fill="none" fill-rule="evenodd">
        <g id="Home-Max-Width-–-Desktop" transform="translate(-390.000000, -26.000000)" fill="#FFFFFF">
            <g id="Group-33" transform="translate(330.000000, 0.000000)">
                <g transform="translate(-516.000000, 0.000000)" id="Group-3">
                    <g transform="translate(516.000000, 0.000000)">
                        <g id="avaya-logo-white" transform="translate(60.000000, 26.000000)">
                            <polygon id="Fill-1" points="75.7767518 0 67 18 70.5387589 18 71.8171212 15.2679083 79.8322955 15.2679083 78.8703028 12.8882521 72.9322883 12.8882521 76.9978527 4.1017192 83.4612411 18 87 18 78.2246797 0"></polygon>
                            <polygon id="Fill-2" points="8.77818338 0 0 18 3.54019039 18 4.81998425 15.2679083 12.8308639 15.2679083 11.8717343 12.8882521 5.93515139 12.8882521 10.0007158 4.1017192 16.4626727 18 20 18 11.2261112 0"></polygon>
                            <polygon id="Fill-3" points="41.7767518 0 33 18 36.5387589 18 37.8171212 15.2679083 45.8322955 15.2679083 44.8703028 12.8882521 38.9322883 12.8882521 42.9992842 4.1017192 49.4626727 18 53 18 44.2246797 0"></polygon>
                            <polygon id="Fill-4" points="33.4630916 0 26.999284 14.1618911 20.5311806 0 17 0 25.7721057 18 25.9181642 18 28.074676 18 28.2250304 18 37 0"></polygon>
                            <polygon id="Fill-5" points="66.4678932 0 59.7358437 14.5680227 53.536402 0 50 0 57.9819601 18.1760315 54.5028277 25 57.8874651 25 70 0"></polygon>
                        </g>
                    </g>
                </g>
            </g>
        </g>
    </g>
</svg>