<?xml version="1.0" encoding="UTF-8"?>
<svg width="31px" height="30px" viewBox="0 0 31 30" version="1.1" xmlns="http://www.w3.org/2000/svg" xmlns:xlink="http://www.w3.org/1999/xlink">
    <!-- Generator: Sketch 50.2 (55047) - http://www.bohemiancoding.com/sketch -->
    <title>facebook-icon</title>
    <desc>Created with Sketch.</desc>
    <defs></defs>
    <g id="Pages" stroke="none" stroke-width="1" fill="none" fill-rule="evenodd">
        <g id="facebook-icon" fill="#000000">
            <path d="M31,14.9995638 C31,23.2844805 24.0606299,30 15.4995493,30 C6.93937015,30 0,23.2844805 0,14.9995638 C0,6.7155195 6.93937015,0 15.4995493,0 C24.0606299,0 31,6.7155195 31,14.9995638" id="Fill-6" opacity="0.08"></path>
            <path d="M19.3545854,10.5278049 L17.902122,10.5285366 C16.763439,10.5285366 16.5426585,11.052439 16.5426585,11.8207317 L16.5426585,13.5153659 L19.258561,13.5153659 L19.2578049,16.1692683 L16.5426585,16.1692683 L16.5426585,22.9814634 L13.7103171,22.9814634 L13.7103171,16.1692683 L11.3414634,16.1692683 L11.3414634,13.5153659 L13.7103171,13.5153659 L13.7103171,11.5580488 C13.7103171,9.28609756 15.143878,8.04878049 17.2382683,8.04878049 L19.3545854,8.05243902 L19.3545854,10.5278049 Z" id="Fill-9"></path>
        </g>
    </g>
</svg>