<?xml version="1.0" encoding="UTF-8"?>
<svg width="16px" height="16px" viewBox="0 0 16 16" version="1.1" xmlns="http://www.w3.org/2000/svg" xmlns:xlink="http://www.w3.org/1999/xlink">
    <!-- Generator: Sketch 50.2 (55047) - http://www.bohemiancoding.com/sketch -->
    <title>Shape</title>
    <desc>Created with Sketch.</desc>
    <defs></defs>
    <g id="Pages" stroke="none" stroke-width="1" fill="none" fill-rule="evenodd">
        <g id="Home-–-Desktop" transform="translate(-1324.000000, -27.000000)" fill="#000000" fill-rule="nonzero">
            <g id="Group-3">
                <path d="M1332,27 C1327.58174,27 1324,30.5816894 1324,35 C1324,39.4182617 1327.58174,43 1332,43 C1336.41826,43 1340,39.4182617 1340,35 C1340,30.5816894 1336.41826,27 1332,27 Z M1332,42.2 C1331.36675,42.2 1330.55015,41.0200195 1330.05117,39 L1333.94883,39 C1333.44985,41.0200195 1332.63325,42.2 1332,42.2 Z M1329.87964,38.2 C1329.727,37.3720215 1329.62886,36.4333496 1329.60806,35.4 L1334.39194,35.4 C1334.37114,36.4333496 1334.273,37.3720215 1334.12036,38.2 L1329.87964,38.2 Z M1324.82026,35.4 L1328.80806,35.4 C1328.82773,36.3913086 1328.91694,37.3358398 1329.06807,38.2 L1325.55972,38.2 C1325.13452,37.3478516 1324.87568,36.4016602 1324.82026,35.4 Z M1332,27.8 C1332.63325,27.8 1333.44985,28.9799805 1333.94883,31 L1330.05117,31 C1330.55015,28.9799805 1331.36675,27.8 1332,27.8 Z M1334.12036,31.8 C1334.273,32.6279785 1334.37114,33.5666504 1334.39194,34.6 L1329.60806,34.6 C1329.62886,33.5666504 1329.727,32.6279785 1329.87964,31.8 L1334.12036,31.8 Z M1328.80806,34.6 L1324.82026,34.6 C1324.87568,33.5983398 1325.13452,32.6521484 1325.55972,31.8 L1329.06807,31.8 C1328.91694,32.6641602 1328.82773,33.6086914 1328.80806,34.6 Z M1335.19194,35.4 L1339.17974,35.4 C1339.12432,36.4016602 1338.86548,37.3478516 1338.44028,38.2 L1334.93193,38.2 C1335.08306,37.3358398 1335.17227,36.3913086 1335.19194,35.4 Z M1335.19194,34.6 C1335.17227,33.6086914 1335.08306,32.6641602 1334.93193,31.8 L1338.44028,31.8 C1338.86548,32.6521484 1339.12432,33.5983398 1339.17974,34.6 L1335.19194,34.6 Z M1337.98257,31 L1334.76841,31 C1334.47324,29.7260254 1334.04404,28.6703125 1333.52583,27.9662598 C1335.37461,28.3670898 1336.96128,29.477539 1337.98257,31 Z M1330.47417,27.9662598 C1329.95596,28.6703125 1329.52676,29.7260254 1329.23159,31 L1326.01743,31 C1327.03872,29.477539 1328.62539,28.3670898 1330.47417,27.9662598 Z M1326.01743,39 L1329.23159,39 C1329.52676,40.2739258 1329.95601,41.3296386 1330.47422,42.0337402 C1328.62544,41.6329102 1327.03872,40.5225098 1326.01743,39 Z M1333.52578,42.0337402 C1334.04399,41.3296386 1334.47324,40.2739258 1334.76841,39 L1337.98257,39 C1336.96128,40.5225098 1335.37456,41.6329102 1333.52578,42.0337402 Z" id="Shape"></path>
            </g>
        </g>
    </g>
</svg>