<?xml version="1.0" encoding="UTF-8"?>
<svg width="31px" height="30px" viewBox="0 0 31 30" version="1.1" xmlns="http://www.w3.org/2000/svg" xmlns:xlink="http://www.w3.org/1999/xlink">
    <!-- Generator: Sketch 50.2 (55047) - http://www.bohemiancoding.com/sketch -->
    <title>google-play-store-icon</title>
    <desc>Created with Sketch.</desc>
    <defs></defs>
    <g id="Pages" stroke="none" stroke-width="1" fill="none" fill-rule="evenodd">
        <g id="google-play-store-icon">
            <path d="M31,14.9995638 C31,23.2844805 24.0606299,30 15.4995493,30 C6.93937015,30 0,23.2844805 0,14.9995638 C0,6.7155195 6.93937015,0 15.4995493,0 C24.0606299,0 31,6.7155195 31,14.9995638" id="Fill-6" fill="#000000" opacity="0.08"></path>
            <g id="icons8-google-play" transform="translate(11.000000, 9.000000)" fill-rule="nonzero">
                <path d="M0.238005283,0 C0.0991689526,0.0370044928 0,0.163093577 0,0.378267252 C0,1.01008312 0,6.97190411 0,6.97190411 C0,6.97190411 0,13.4161525 0,13.6998531 C0,13.8560937 0.0661127479,13.9616251 0.169248201,14 L7,6.96093984 L0.238005283,0 Z" id="Shape" fill="#4DB6AC"></path>
                <path d="M9,5.05465496 L6.07159271,3.36520412 C6.07159271,3.36520412 0.698026713,0.265584698 0.382744558,0.082606804 C0.246443413,0.00418740457 0.111518958,-0.0164489458 0,0.0124422265 L7.04222136,7 L9,5.05465496 Z" id="Shape" fill="#DCE775"></path>
                <path d="M0.320454633,13.9325022 C0.505909178,13.8250955 5.65500009,10.8612094 9,8.93604304 L7.04454563,7 L0,13.9828069 C0.0859091782,14.0154369 0.197727185,14.0032004 0.320454633,13.9325022 Z" id="Shape" fill="#D32F2F"></path>
                <path d="M11.7824433,6.69978869 C11.5046476,6.54474975 8.95818702,5.0126849 8.95818702,5.0126849 L8.93776078,5 L7,6.99295287 L8.95274005,9 C10.498319,8.07681461 11.6585245,7.38336855 11.762017,7.32135305 C12.0915588,7.124031 12.060239,6.85482726 11.7824433,6.69978869 Z" id="Shape" fill="#FBC02D"></path>
            </g>
        </g>
    </g>
</svg>