<?xml version="1.0" encoding="UTF-8"?>
<svg width="30px" height="30px" viewBox="0 0 30 30" version="1.1" xmlns="http://www.w3.org/2000/svg" xmlns:xlink="http://www.w3.org/1999/xlink">
    <!-- Generator: Sketch 50.2 (55047) - http://www.bohemiancoding.com/sketch -->
    <title>google-plus-icon</title>
    <desc>Created with Sketch.</desc>
    <defs></defs>
    <g id="Pages" stroke="none" stroke-width="1" fill="none" fill-rule="evenodd">
        <g id="google-plus-icon" fill="#000000">
            <path d="M0,14.7995439 C0,22.9732984 6.62561497,29.5983087 14.7991543,29.5983087 C22.9719147,29.5983087 29.5983087,22.9732984 29.5983087,14.7995439 C29.5983087,6.62578936 22.9719147,0 14.7991543,0 C6.62561497,0 0,6.62578936 0,14.7995439 Z" id="Fill-6" opacity="0.08"></path>
            <g id="Group-8" transform="translate(6.659619, 9.619450)">
                <path d="M5.56371871,10.90464 C2.48979391,10.90464 0,8.46464124 0,5.45232002 C0,2.4399424 2.48979391,0 5.56371871,0 C7.06597514,0 8.3210882,0.54175193 9.28450992,1.4209637 L7.7160071,2.95789221 L7.7160071,2.95445162 C7.1318762,2.4092027 6.39130942,2.12978166 5.56371871,2.12978166 C3.72775542,2.12978166 2.2359741,3.64962003 2.2359741,5.44893583 C2.2359741,7.24802602 3.72775542,8.77147419 5.56371871,8.77147419 C7.22937524,8.77147419 8.3628735,7.8376642 8.59614599,6.55646742 L5.56371871,6.55646742 L5.56371871,4.43001354 L10.7970112,4.43001354 C10.8665958,4.79460328 10.90464,5.17628317 10.90464,5.5749968 C10.90464,8.68963327 8.77675519,10.90464 5.56371871,10.90464 Z" id="Path"></path>
                <polygon id="Path" points="17.7200401 4.86815669 15.7727323 4.86815669 15.7727323 6.81540002 14.2149634 6.81540002 14.2149634 4.86815669 12.26772 4.86815669 12.26772 3.31032334 14.2149634 3.31032334 14.2149634 1.36308 15.7727323 1.36308 15.7727323 3.31032334 17.7200401 3.31032334"></polygon>
            </g>
        </g>
    </g>
</svg>