<!-- Generated by IcoMoon.io -->
<svg version="1.1" xmlns="http://www.w3.org/2000/svg" width="51" height="32" viewBox="0 0 51 32">
<title>icon-google-plus</title>
<path d="M16.596 30.731c-8.197 0-14.837-6.507-14.837-14.54s6.639-14.54 14.837-14.54c4.006 0 7.353 1.445 9.922 3.789l-4.183 4.098v-0.009c-1.558-1.454-3.533-2.199-5.739-2.199-4.896 0-8.874 4.053-8.874 8.851s3.978 8.86 8.874 8.86c4.442 0 7.464-2.49 8.086-5.907h-8.086v-5.671h13.955c0.186 0.972 0.287 1.99 0.287 3.053 0 8.306-5.674 14.212-14.242 14.212z"></path>
<path d="M49.012 14.634h-5.193v5.193h-4.154v-5.193h-5.193v-4.154h5.193v-5.193h4.154v5.193h5.193z"></path>
</svg>
