<!-- Generated by IcoMoon.io -->
<svg version="1.1" xmlns="http://www.w3.org/2000/svg" width="30" height="32" viewBox="0 0 30 32">
<title>cloud-pdf</title>
<path fill="#da291c" d="M27.638 15.565c0.473-1.012 0.721-2.092 0.743-3.24 0.025-1.121-0.197-2.128-0.667-3.022-0.451-0.83-1.15-1.436-2.095-1.817v0.020c-1.004-0.386-2.109-0.426-3.314-0.119-0.228 0.067-0.45 0.040-0.667-0.079-0.207-0.103-0.36-0.268-0.457-0.494-1.026-2.631-2.791-4.185-5.295-4.662-0.803-0.137-1.641-0.163-2.514-0.079l-1.010 0.178c-2.184 0.71-3.708 2.139-4.571 4.286-0.424 1.088-0.633 2.102-0.629 3.042 0.003 0.247-0.073 0.464-0.229 0.652-0.144 0.188-0.335 0.3-0.571 0.336-2.678 0.494-4.107 1.639-4.286 3.437-0.051 0.939 0.152 1.822 0.61 2.647 0.691 0.888 1.751 1.415 3.181 1.58 1.738 0.217 3.122 0.25 4.152 0.099 0.26-0.032 0.495 0.034 0.705 0.198 0.211 0.165 0.331 0.382 0.362 0.652 0.044 0.269-0.014 0.513-0.171 0.731-0.16 0.218-0.369 0.343-0.629 0.375-1.154 0.178-2.703 0.145-4.648-0.099-2.057-0.24-3.555-1.030-4.495-2.37-0.020-0.029-0.039-0.061-0.057-0.099-0.684-1.197-0.989-2.474-0.914-3.832 0.068-2.616 1.769-4.314 5.105-5.096 0.088-0.949 0.335-1.95 0.743-3.002h0.019c1.086-2.736 3.022-4.554 5.81-5.452 0.044-0.013 0.089-0.026 0.133-0.039l1.162-0.198c0.023 0.002 0.042 0.002 0.057 0 1.044-0.101 2.047-0.068 3.010 0.099l0.019 0.020c2.935 0.531 5.069 2.23 6.4 5.096 1.317-0.223 2.536-0.111 3.657 0.336h0.019c1.391 0.554 2.413 1.449 3.067 2.686l0.019 0.020c0.622 1.187 0.921 2.524 0.895 4.010-0.029 1.434-0.34 2.783-0.933 4.049-0.625 1.355-1.463 2.336-2.514 2.943-0.995 0.604-2.214 0.973-3.657 1.106-0.023 0.001-0.048 0.001-0.076 0h-3.429c-0.264 0.001-0.492-0.098-0.686-0.296-0.179-0.187-0.268-0.418-0.267-0.691-0.001-0.274 0.088-0.511 0.267-0.711 0.193-0.185 0.422-0.278 0.686-0.277h3.333c1.134-0.104 2.093-0.387 2.876-0.849 0.727-0.433 1.311-1.124 1.752-2.074zM15.352 10.252c0.267 0 0.495 0.092 0.686 0.277 0.178 0.198 0.267 0.435 0.267 0.711v17.165l4.381-4.425c0.19-0.184 0.419-0.277 0.686-0.277 0.254 0 0.476 0.099 0.667 0.296 0.178 0.198 0.267 0.428 0.267 0.691 0 0.277-0.095 0.514-0.286 0.711l-6 6.064c-0.089 0.092-0.19 0.158-0.305 0.198l-0.362 0.079h-0.019l-0.343-0.079-0.114-0.040-0.095-0.079c-0.038-0.026-0.070-0.059-0.095-0.099h-0.019l-0.038-0.059-5.581-6.005c-0.178-0.198-0.267-0.434-0.267-0.711s0.102-0.507 0.305-0.691c0.178-0.184 0.4-0.277 0.667-0.277s0.489 0.099 0.667 0.296l3.981 4.286v-17.047c0-0.277 0.095-0.514 0.286-0.711 0.178-0.184 0.4-0.277 0.667-0.277z"></path>
</svg>
