<!-- Generated by IcoMoon.io -->
<svg version="1.1" xmlns="http://www.w3.org/2000/svg" width="37" height="32" viewBox="0 0 37 32">
<title>icon-twitter</title>
<path d="M36.466 5.144c-0.052-0.059-0.137-0.079-0.209-0.045-1.068 0.458-2.195 0.788-3.354 0.985 1.232-0.898 2.148-2.139 2.618-3.561 0.022-0.067 0-0.142-0.059-0.187-0.057-0.043-0.137-0.050-0.2-0.013-1.386 0.796-2.888 1.356-4.464 1.669-1.396-1.403-3.348-2.208-5.368-2.208-4.106 0-7.445 3.233-7.445 7.207 0 0.48 0.047 0.957 0.143 1.418-5.688-0.339-11.005-2.982-14.623-7.274-0.036-0.045-0.092-0.069-0.15-0.062-0.059 0.003-0.111 0.035-0.14 0.085-0.66 1.094-1.009 2.346-1.009 3.623 0 2.208 1.037 4.273 2.803 5.638-0.909-0.107-1.797-0.385-2.598-0.815-0.054-0.028-0.121-0.028-0.175 0.002s-0.088 0.085-0.090 0.146v0.092c0 3.173 2.16 5.959 5.233 6.884-0.809 0.125-1.649 0.117-2.475-0.033-0.061-0.012-0.124 0.007-0.166 0.054-0.041 0.045-0.055 0.109-0.036 0.166 0.921 2.785 3.482 4.736 6.464 4.981-2.487 1.764-5.425 2.691-8.532 2.691-0.572 0-1.148-0.032-1.711-0.095-0.081-0.010-0.161 0.037-0.188 0.112s0.002 0.161 0.071 0.202c3.361 2.086 7.246 3.188 11.239 3.188 13.057 0 20.858-10.262 20.858-20.187 0-0.276-0.005-0.55-0.017-0.825 1.409-0.997 2.618-2.218 3.593-3.631 0.043-0.062 0.038-0.147-0.012-0.206z"></path>
</svg>
