<!-- Generated by IcoMoon.io -->
<svg version="1.1" xmlns="http://www.w3.org/2000/svg" width="32" height="32" viewBox="0 0 32 32">
<title>icon-globe</title>
<path d="M16 0c-8.837 0-16 7.163-16 16s7.163 16 16 16 16-7.163 16-16c0-8.837-7.163-16-16-16zM16 30.4c-1.267 0-2.9-2.36-3.898-6.4h7.795c-0.998 4.040-2.631 6.4-3.898 6.4zM11.759 22.4c-0.305-1.656-0.502-3.533-0.543-5.6h9.568c-0.042 2.067-0.238 3.944-0.543 5.6h-8.481zM1.641 16.8h7.976c0.039 1.983 0.218 3.872 0.52 5.6h-7.017c-0.85-1.704-1.368-3.597-1.479-5.6zM16 1.6c1.267 0 2.9 2.36 3.898 6.4h-7.795c0.998-4.040 2.631-6.4 3.898-6.4zM20.241 9.6c0.305 1.656 0.502 3.533 0.543 5.6h-9.568c0.042-2.067 0.238-3.944 0.543-5.6h8.481zM9.616 15.2h-7.976c0.111-2.003 0.629-3.896 1.479-5.6h7.017c-0.302 1.728-0.481 3.617-0.52 5.6zM22.384 16.8h7.976c-0.111 2.003-0.629 3.896-1.479 5.6h-7.017c0.302-1.728 0.481-3.617 0.52-5.6zM22.384 15.2c-0.039-1.983-0.218-3.872-0.52-5.6h7.017c0.85 1.704 1.368 3.597 1.479 5.6h-7.976zM27.965 8h-6.428c-0.59-2.548-1.449-4.659-2.485-6.067 3.698 0.802 6.871 3.023 8.913 6.067zM12.948 1.933c-1.036 1.408-1.895 3.52-2.485 6.067h-6.428c2.043-3.045 5.216-5.266 8.913-6.067zM4.035 24h6.428c0.59 2.548 1.449 4.659 2.485 6.067-3.698-0.802-6.871-3.022-8.914-6.067zM19.052 30.067c1.036-1.408 1.895-3.52 2.485-6.067h6.428c-2.043 3.045-5.216 5.266-8.914 6.067z"></path>
</svg>
