<?xml version="1.0" encoding="utf-8"?>
<!DOCTYPE svg PUBLIC "-//W3C//DTD SVG 1.1//EN" "http://www.w3.org/Graphics/SVG/1.1/DTD/svg11.dtd">
<svg version="1.1" xmlns="http://www.w3.org/2000/svg" xmlns:xlink="http://www.w3.org/1999/xlink" x="0px" y="0px" viewBox="0 0 1000 1000" enable-background="new 0 0 1000 1000" xml:space="preserve">
<g><path d="M101.4,10l321.4,321.4l28.7,28.7v40.6V736c0,21.4,20.2,59.1,37.9,70.9l131.1,87.4c0.5,0.4,0.6,0.4,0.1,0.2c-1.8-0.8-4.3-1.5-7.4-2c-10.7-1.7-23.5,0.2-35.7,6.7c-12.2,6.5-20.8,16.1-25.4,26c-2.1,4.6-2.6,7-2.6,7.1V399.6V359l28.7-28.7L898.6,10h0.5c-0.9,1.5-1.8,3.4-2.8,5.8c-5.7,14.2-6.5,32.9,1.5,52.1c7.9,19.1,21.7,31.8,35.8,37.7c2.4,1,4.4,1.7,6.1,2.1l-0.3,0.3H60.8l-0.3-0.3c1.6-0.4,3.7-1.1,6-2.1c14-6,27.9-18.6,35.8-37.8c7.9-19.2,7.1-37.9,1.4-52.1c-1-2.4-1.9-4.3-2.8-5.7H101.4L101.4,10z M647.7,399.6L647.7,399.6L647.7,399.6v532.6c0,54.1-36.5,73.6-81.6,43.6l-131.1-87.4c-45-30-81.6-98.3-81.6-152.5V400.8L32,79.3C-6.2,41.1,6.6,10,60.7,10h878.6c54,0,67,31,28.7,69.3L647.7,399.6z"/></g>
</svg>