<!-- Generated by IcoMoon.io -->
<svg version="1.1" xmlns="http://www.w3.org/2000/svg" width="36" height="32" viewBox="0 0 36 32">
<title>icon-apple-store</title>
<path fill="#1898fa" d="M34.883 22.767c0 0.622-0.257 1.181-0.676 1.589-0.414 0.405-0.988 0.656-1.622 0.656h-3.104l2.047 3.467c0.635 1.077 0.26 2.45-0.839 3.070-0.362 0.203-0.756 0.301-1.144 0.301-0.797 0-1.568-0.402-1.993-1.125l-8.57-14.512c-0.007-0.008-0.011-0.014-0.015-0.026l-0.177-0.293c-0.007-0.016-0.015-0.027-0.023-0.040-0.445-0.818-0.697-1.752-0.697-2.741 0-1.672 0.72-3.182 1.875-4.248l6.881 11.656h5.758c1.267 0 2.297 1.005 2.297 2.245z"></path>
<path fill="#fff" d="M8 27.387l-2.043 3.548c-0.393 0.684-1.104 1.065-1.84 1.065-0.358 0-0.722-0.092-1.056-0.285-1.015-0.588-1.361-1.887-0.778-2.906l1.515-2.629c0.375-0.117 0.772-0.18 1.186-0.18 1.207 0 2.287 0.536 3.016 1.387z"></path>
<path fill="#1898fa" d="M22 22.735c0 0.453-0.093 0.879-0.265 1.265h-19.609c-1.177 0-2.126-0.974-2.126-2.176v-0.016c0-1.203 0.949-2.173 2.126-2.173h5.238l7.093-12.541-2.159-3.81c-0.588-1.050-0.242-2.389 0.786-2.99 0.33-0.201 0.691-0.296 1.055-0.296 0.739 0 1.463 0.388 1.856 1.094l0.92 1.636 0.921-1.636c0.391-0.707 1.116-1.094 1.855-1.094 0.364 0 0.728 0.095 1.060 0.296 1.023 0.601 1.371 1.939 0.784 2.99l-2.158 3.81-2.462 4.365-4.617 8.175h6.668c1.674 0 3.033 1.388 3.033 3.099z"></path>
<path fill="#1898fa" d="M8 27.387l-2.043 3.548c-0.393 0.684-1.104 1.065-1.84 1.065-0.358 0-0.722-0.092-1.056-0.285-1.015-0.588-1.361-1.887-0.778-2.906l1.515-2.629c0.375-0.117 0.772-0.18 1.186-0.18 1.207 0 2.287 0.536 3.016 1.387z"></path>
</svg>
