<!-- Generated by IcoMoon.io -->
<svg version="1.1" xmlns="http://www.w3.org/2000/svg" width="32" height="32" viewBox="0 0 32 32">
<title>icon-instagram</title>
<path d="M22.187 0.305h-13.542c-4.599 0-8.34 3.742-8.34 8.34v13.542c0 4.599 3.741 8.34 8.34 8.34h13.542c4.599 0 8.34-3.742 8.34-8.34v-13.542c0-4.599-3.741-8.34-8.34-8.34zM27.846 22.187c0 3.12-2.539 5.659-5.659 5.659h-13.542c-3.12 0-5.659-2.538-5.659-5.659v-13.542c0-3.12 2.538-5.659 5.659-5.659h13.542c3.12 0 5.659 2.539 5.659 5.659v13.542h0z"></path>
<path d="M15.416 7.416c-4.411 0-8 3.589-8 8s3.589 8 8 8 8-3.589 8-8c0-4.411-3.589-8-8-8zM15.416 20.661c-2.892 0-5.245-2.353-5.245-5.245s2.353-5.245 5.245-5.245 5.245 2.353 5.245 5.245c0 2.892-2.353 5.245-5.245 5.245z"></path>
<path d="M23.416 5.638c-0.467 0-0.926 0.189-1.256 0.52-0.331 0.33-0.522 0.789-0.522 1.257 0 0.467 0.191 0.926 0.522 1.257 0.33 0.33 0.789 0.52 1.256 0.52 0.469 0 0.926-0.191 1.257-0.52 0.331-0.331 0.52-0.79 0.52-1.257 0-0.469-0.189-0.928-0.52-1.257-0.33-0.331-0.789-0.52-1.257-0.52z"></path>
</svg>
