<!-- Generated by IcoMoon.io -->
<svg version="1.1" xmlns="http://www.w3.org/2000/svg" width="30" height="32" viewBox="0 0 30 32">
<title>icon-linkedin</title>
<path d="M3.677 0.725c-1.939 0-3.51 1.522-3.51 3.393 0 1.875 1.569 3.397 3.51 3.397 1.936 0 3.507-1.522 3.507-3.397 0-1.872-1.573-3.393-3.507-3.393z"></path>
<path d="M0.167 29.602h6.051v-18.842h-6.051z"></path>
<path d="M22.234 10.76c-2.965 0-4.954 1.574-5.769 3.065h-0.082v-2.593h-5.847v18.982h6.091v-9.389c0-2.477 0.488-4.875 3.66-4.875 3.125 0 3.167 2.831 3.167 5.032v9.232h6.092v-10.412c0-5.111-1.14-9.042-7.313-9.042z"></path>
</svg>
