<?xml version="1.0" encoding="UTF-8"?>
<svg width="17px" height="16px" viewBox="0 0 17 16" version="1.1" xmlns="http://www.w3.org/2000/svg" xmlns:xlink="http://www.w3.org/1999/xlink">
    <!-- Generator: Sketch 50.2 (55047) - http://www.bohemiancoding.com/sketch -->
    <title>Combined-Shape</title>
    <desc>Created with Sketch.</desc>
    <defs></defs>
    <g id="Pages" stroke="none" stroke-width="1" fill="none" fill-rule="evenodd">
        <path d="M11.573027,10.9524327 C13.8114027,8.714057 13.8114027,5.08493287 11.573027,2.84655712 C9.33465126,0.608181377 5.70552712,0.608181377 3.46715138,2.84655712 C1.22877563,5.08493287 1.22877563,8.714057 3.46715138,10.9524327 C5.70552712,13.1908085 9.33465126,13.1908085 11.573027,10.9524327 Z M11.9136489,12.0001614 C9.26896104,14.2830601 5.27002456,14.1695195 2.76004459,11.6595395 C0.131144557,9.03063949 0.131144557,4.76835038 2.76004459,2.13945034 C5.38894463,-0.489449696 9.65123375,-0.489449696 12.2801338,2.13945034 C14.7901138,4.64943031 14.9036544,8.64836679 12.6207557,11.2930547 L16.5658979,15.2381969 L15.8587911,15.9453037 L11.9136489,12.0001614 Z" id="Combined-Shape" fill="#000000" fill-rule="nonzero"></path>
    </g>
</svg>