<!-- Generated by IcoMoon.io -->
<svg version="1.1" xmlns="http://www.w3.org/2000/svg" width="27" height="32" viewBox="0 0 27 32">
<title>icon-google-play</title>
<path fill="#4db6ac" d="M0.544 0c-0.317 0.085-0.544 0.373-0.544 0.865 0 1.444 0 15.071 0 15.071s0 14.73 0 15.378c0 0.357 0.151 0.598 0.387 0.686l15.613-16.089-15.456-15.911z"></path>
<path fill="#dce775" d="M20.571 11.553l-6.694-3.862c0 0-12.282-7.085-13.003-7.503-0.312-0.179-0.62-0.226-0.875-0.16l16.096 15.972 4.475-4.447z"></path>
<path fill="#d32f2f" d="M0.732 31.846c0.424-0.245 12.193-7.020 19.839-11.42l-4.47-4.425-16.102 15.961c0.196 0.075 0.452 0.047 0.732-0.115z"></path>
<path fill="#fbc02d" d="M26.931 15.314c-0.635-0.354-6.455-3.856-6.455-3.856l-0.047-0.029-4.429 4.555 4.463 4.588c3.533-2.11 6.185-3.695 6.421-3.837 0.753-0.451 0.682-1.066 0.047-1.421z"></path>
</svg>
