<?xml version="1.0" encoding="UTF-8"?>
<svg width="30px" height="30px" viewBox="0 0 30 30" version="1.1" xmlns="http://www.w3.org/2000/svg" xmlns:xlink="http://www.w3.org/1999/xlink">
    <!-- Generator: Sketch 50.2 (55047) - http://www.bohemiancoding.com/sketch -->
    <title>instagram-icon</title>
    <desc>Created with Sketch.</desc>
    <defs></defs>
    <g id="Pages" stroke="none" stroke-width="1" fill="none" fill-rule="evenodd">
        <g id="instagram-icon" fill="#000000">
            <path d="M15,0 C6.71553403,0 0,6.71571079 0,15.0003948 C0,23.2850788 6.71553403,30 15,30 C23.2836764,30 30,23.2850788 30,15.0003948 C30,6.71571079 23.2836764,0 15,0" id="Fill-18" opacity="0.08"></path>
            <g id="Group-50" transform="translate(8.000000, 8.000000)" fill-rule="nonzero">
                <path d="M10.3999522,0.142857143 L4.05226119,0.142857143 C1.8966171,0.142857143 0.142857143,1.8967009 0.142857143,4.05234498 L0.142857143,10.400036 C0.142857143,12.5557638 1.8966171,14.3095238 4.05226119,14.3095238 L10.3999522,14.3095238 C12.5557638,14.3095238 14.3095238,12.5556801 14.3095238,10.400036 L14.3095238,4.05234498 C14.3096076,1.8967009 12.5557638,0.142857143 10.3999522,0.142857143 Z M13.0526723,10.400036 C13.0526723,11.8626897 11.8626897,13.0525885 10.400036,13.0525885 L4.05226119,13.0525885 C2.58969124,13.0526723 1.39979247,11.8626897 1.39979247,10.400036 L1.39979247,4.05234498 C1.39979247,2.58977504 2.58969124,1.39979247 4.05226119,1.39979247 L10.3999522,1.39979247 C11.8626059,1.39979247 13.0525885,2.58977504 13.0525885,4.05234498 L13.0525885,10.400036 L13.0526723,10.400036 Z" id="Shape"></path>
                <path d="M7.22619048,3.47619048 C5.15840933,3.47619048 3.47619048,5.15844795 3.47619048,7.22627656 C3.47619048,9.29401909 5.15840933,10.9761905 7.22619048,10.9761905 C9.29397162,10.9761905 10.9761905,9.29401909 10.9761905,7.22627656 C10.9761905,5.15844795 9.29397162,3.47619048 7.22619048,3.47619048 Z M7.22619048,9.68484136 C5.8704815,9.68484136 4.76742386,8.58193057 4.76742386,7.22619048 C4.76742386,5.8703643 5.87039542,4.76736742 7.22619048,4.76736742 C8.58198553,4.76736742 9.68495709,5.8703643 9.68495709,7.22619048 C9.68495709,8.58193057 8.58189945,9.68484136 7.22619048,9.68484136 Z" id="Shape"></path>
                <path d="M10.9761905,2.64285714 C10.7572511,2.64285714 10.5421753,2.73149351 10.3875541,2.88679654 C10.2321753,3.04134199 10.1428571,3.25649351 10.1428571,3.47619048 C10.1428571,3.69520563 10.2322511,3.91028139 10.3875541,4.06558442 C10.5420996,4.22012987 10.7572511,4.30952381 10.9761905,4.30952381 C11.1958874,4.30952381 11.4102814,4.22012987 11.5655844,4.06558442 C11.7208874,3.91028139 11.8095238,3.69512987 11.8095238,3.47619048 C11.8095238,3.25649351 11.7208874,3.04134199 11.5655844,2.88679654 C11.411039,2.73149351 11.1958874,2.64285714 10.9761905,2.64285714 Z" id="Shape"></path>
            </g>
        </g>
    </g>
</svg>