<?xml version="1.0" encoding="UTF-8"?>
<svg width="31px" height="30px" viewBox="0 0 31 30" version="1.1" xmlns="http://www.w3.org/2000/svg" xmlns:xlink="http://www.w3.org/1999/xlink">
    <!-- Generator: Sketch 50.2 (55047) - http://www.bohemiancoding.com/sketch -->
    <title>linkedin-icon</title>
    <desc>Created with Sketch.</desc>
    <defs></defs>
    <g id="Pages" stroke="none" stroke-width="1" fill="none" fill-rule="evenodd">
        <g id="linkedin-icon" fill="#000000">
            <path d="M31,14.9995638 C31,23.2844805 24.0606299,30 15.4995493,30 C6.93937015,30 0,23.2844805 0,14.9995638 C0,6.7155195 6.93937015,0 15.4995493,0 C24.0606299,0 31,6.7155195 31,14.9995638" id="Fill-11" opacity="0.08"></path>
            <g id="Group-40" transform="translate(9.073171, 7.317073)">
                <path d="M1.53563415,0 C0.687292683,0 0,0.665853659 0,1.48463415 C0,2.30487805 0.686536585,2.97073171 1.53563415,2.97073171 C2.38246341,2.97073171 3.0697561,2.30487805 3.0697561,1.48463415 C3.0697561,0.665853659 2.38170732,0 1.53563415,0" id="Fill-14"></path>
                <polygon id="Fill-16" points="0 12.6336585 2.64709756 12.6336585 2.64709756 4.3902439 0 4.3902439"></polygon>
                <path d="M9.65419826,4.3902439 C8.35689329,4.3902439 7.48694481,5.07879134 7.13043352,5.73121585 L7.09463004,5.73121585 L7.09463004,4.59666069 L4.53658537,4.59666069 L4.53658537,12.9012506 L7.20127871,12.9012506 L7.20127871,8.7935564 C7.20127871,7.70986824 7.41457606,6.66082862 8.8025324,6.66082862 C10.1699208,6.66082862 10.1882034,7.89932937 10.1882034,8.86211626 L10.1882034,12.9012506 L12.8536585,12.9012506 L12.8536585,8.34607428 C12.8536585,6.1101381 12.3546951,4.3902439 9.65419826,4.3902439" id="Fill-18"></path>
            </g>
        </g>
    </g>
</svg>