<svg aria-hidden="true" style="position: absolute; width: 0; height: 0; overflow: hidden;" version="1.1" xmlns="http://www.w3.org/2000/svg" xmlns:xlink="http://www.w3.org/1999/xlink">
<defs>
<symbol id="icon-dropdown-arrow" viewBox="0 0 77 32">
<title>icon-dropdown-arrow</title>
<path stroke-width="6.4" stroke-miterlimit="4" stroke-linecap="butt" stroke-linejoin="round" d="M63.904 3.254l-25.496 25.496-25.5-25.5"></path>
</symbol>
<symbol id="icon-apple-store" viewBox="0 0 32 32">
<title>icon-apple-store</title>
<path fill="#1898fa" style="fill: var(--color1, #1898fa)" d="M34.883 22.767c0 0.622-0.257 1.181-0.676 1.589-0.414 0.405-0.988 0.656-1.622 0.656h-3.104l2.047 3.467c0.635 1.077 0.26 2.45-0.839 3.070-0.362 0.203-0.756 0.301-1.144 0.301-0.797 0-1.568-0.402-1.993-1.125l-8.57-14.512c-0.007-0.008-0.011-0.014-0.015-0.026l-0.177-0.293c-0.007-0.016-0.015-0.027-0.023-0.040-0.445-0.818-0.697-1.752-0.697-2.741 0-1.672 0.72-3.182 1.875-4.248l6.881 11.656h5.758c1.267 0 2.297 1.005 2.297 2.245z"></path>
<path fill="#fff" style="fill: var(--color2, #fff)" d="M8 27.387l-2.043 3.548c-0.393 0.684-1.104 1.065-1.84 1.065-0.358 0-0.722-0.092-1.056-0.285-1.015-0.588-1.361-1.887-0.778-2.906l1.515-2.629c0.375-0.117 0.772-0.18 1.186-0.18 1.207 0 2.287 0.536 3.016 1.387z"></path>
<path fill="#1898fa" style="fill: var(--color1, #1898fa)" d="M22 22.735c0 0.453-0.093 0.879-0.265 1.265h-19.609c-1.177 0-2.126-0.974-2.126-2.176v-0.016c0-1.203 0.949-2.173 2.126-2.173h5.238l7.093-12.541-2.159-3.81c-0.588-1.050-0.242-2.389 0.786-2.99 0.33-0.201 0.691-0.296 1.055-0.296 0.739 0 1.463 0.388 1.856 1.094l0.92 1.636 0.921-1.636c0.391-0.707 1.116-1.094 1.855-1.094 0.364 0 0.728 0.095 1.060 0.296 1.023 0.601 1.371 1.939 0.784 2.99l-2.158 3.81-2.462 4.365-4.617 8.175h6.668c1.674 0 3.033 1.388 3.033 3.099z"></path>
<path fill="#1898fa" style="fill: var(--color1, #1898fa)" d="M8 27.387l-2.043 3.548c-0.393 0.684-1.104 1.065-1.84 1.065-0.358 0-0.722-0.092-1.056-0.285-1.015-0.588-1.361-1.887-0.778-2.906l1.515-2.629c0.375-0.117 0.772-0.18 1.186-0.18 1.207 0 2.287 0.536 3.016 1.387z"></path>
</symbol>
<symbol id="icon-facebook" viewBox="0 0 32 32">
<title>icon-facebook</title>
<path d="M17.823 5.393l-3.099 0.002c-2.429 0-2.9 1.118-2.9 2.757v3.615h5.794l-0.002 5.662h-5.792v14.533h-6.042v-14.533h-5.054v-5.662h5.054v-4.176c0-4.847 3.058-7.486 7.526-7.486l4.515 0.008v5.281z"></path>
</symbol>
<symbol id="icon-google-play" viewBox="0 0 32 32">
<title>icon-google-play</title>
<path fill="#4db6ac" style="fill: var(--color3, #4db6ac)" d="M0.544 0c-0.317 0.085-0.544 0.373-0.544 0.865 0 1.444 0 15.071 0 15.071s0 14.73 0 15.378c0 0.357 0.151 0.598 0.387 0.686l15.613-16.089-15.456-15.911z"></path>
<path fill="#dce775" style="fill: var(--color4, #dce775)" d="M20.571 11.553l-6.694-3.862c0 0-12.282-7.085-13.003-7.503-0.312-0.179-0.62-0.226-0.875-0.16l16.096 15.972 4.475-4.447z"></path>
<path fill="#d32f2f" style="fill: var(--color5, #d32f2f)" d="M0.732 31.846c0.424-0.245 12.193-7.020 19.839-11.42l-4.47-4.425-16.102 15.961c0.196 0.075 0.452 0.047 0.732-0.115z"></path>
<path fill="#fbc02d" style="fill: var(--color6, #fbc02d)" d="M26.931 15.314c-0.635-0.354-6.455-3.856-6.455-3.856l-0.047-0.029-4.429 4.555 4.463 4.588c3.533-2.11 6.185-3.695 6.421-3.837 0.753-0.451 0.682-1.066 0.047-1.421z"></path>
</symbol>
<symbol id="icon-google-plus" viewBox="0 0 32 32">
<title>icon-google-plus</title>
<path d="M16.596 30.731c-8.197 0-14.837-6.507-14.837-14.54s6.639-14.54 14.837-14.54c4.006 0 7.353 1.445 9.922 3.789l-4.183 4.098v-0.009c-1.558-1.454-3.533-2.199-5.739-2.199-4.896 0-8.874 4.053-8.874 8.851s3.978 8.86 8.874 8.86c4.442 0 7.464-2.49 8.086-5.907h-8.086v-5.671h13.955c0.186 0.972 0.287 1.99 0.287 3.053 0 8.306-5.674 14.212-14.242 14.212z"></path>
<path d="M49.012 14.634h-5.193v5.193h-4.154v-5.193h-5.193v-4.154h5.193v-5.193h4.154v5.193h5.193z"></path>
</symbol>
<symbol id="icon-instagram" viewBox="0 0 32 32">
<title>icon-instagram</title>
<path d="M22.187 0.305h-13.542c-4.599 0-8.34 3.742-8.34 8.34v13.542c0 4.599 3.741 8.34 8.34 8.34h13.542c4.599 0 8.34-3.742 8.34-8.34v-13.542c0-4.599-3.741-8.34-8.34-8.34zM27.846 22.187c0 3.12-2.539 5.659-5.659 5.659h-13.542c-3.12 0-5.659-2.538-5.659-5.659v-13.542c0-3.12 2.538-5.659 5.659-5.659h13.542c3.12 0 5.659 2.539 5.659 5.659v13.542h0z"></path>
<path d="M15.416 7.416c-4.411 0-8 3.589-8 8s3.589 8 8 8 8-3.589 8-8c0-4.411-3.589-8-8-8zM15.416 20.661c-2.892 0-5.245-2.353-5.245-5.245s2.353-5.245 5.245-5.245 5.245 2.353 5.245 5.245c0 2.892-2.353 5.245-5.245 5.245z"></path>
<path d="M23.416 5.638c-0.467 0-0.926 0.189-1.256 0.52-0.331 0.33-0.522 0.789-0.522 1.257 0 0.467 0.191 0.926 0.522 1.257 0.33 0.33 0.789 0.52 1.256 0.52 0.469 0 0.926-0.191 1.257-0.52 0.331-0.331 0.52-0.79 0.52-1.257 0-0.469-0.189-0.928-0.52-1.257-0.33-0.331-0.789-0.52-1.257-0.52z"></path>
</symbol>
<symbol id="icon-linkedin" viewBox="0 0 32 32">
<title>icon-linkedin</title>
<path d="M3.677 0.725c-1.939 0-3.51 1.522-3.51 3.393 0 1.875 1.569 3.397 3.51 3.397 1.936 0 3.507-1.522 3.507-3.397 0-1.872-1.573-3.393-3.507-3.393z"></path>
<path d="M0.167 29.602h6.051v-18.842h-6.051z"></path>
<path d="M22.234 10.76c-2.965 0-4.954 1.574-5.769 3.065h-0.082v-2.593h-5.847v18.982h6.091v-9.389c0-2.477 0.488-4.875 3.66-4.875 3.125 0 3.167 2.831 3.167 5.032v9.232h6.092v-10.412c0-5.111-1.14-9.042-7.313-9.042z"></path>
</symbol>
<symbol id="icon-plus" viewBox="0 0 32 32">
<title>icon-plus</title>
<path stroke-width="3.2" stroke-miterlimit="4" stroke-linecap="square" stroke-linejoin="miter" d="M28.8 16h-25.64"></path>
<path stroke-width="3.2" stroke-miterlimit="4" stroke-linecap="square" stroke-linejoin="miter" d="M15.98 28.82v-25.64"></path>
</symbol>
<symbol id="icon-twitter" viewBox="0 0 32 32">
<title>icon-twitter</title>
<path d="M36.466 5.144c-0.052-0.059-0.137-0.079-0.209-0.045-1.068 0.458-2.195 0.788-3.354 0.985 1.232-0.898 2.148-2.139 2.618-3.561 0.022-0.067 0-0.142-0.059-0.187-0.057-0.043-0.137-0.050-0.2-0.013-1.386 0.796-2.888 1.356-4.464 1.669-1.396-1.403-3.348-2.208-5.368-2.208-4.106 0-7.445 3.233-7.445 7.207 0 0.48 0.047 0.957 0.143 1.418-5.688-0.339-11.005-2.982-14.623-7.274-0.036-0.045-0.092-0.069-0.15-0.062-0.059 0.003-0.111 0.035-0.14 0.085-0.66 1.094-1.009 2.346-1.009 3.623 0 2.208 1.037 4.273 2.803 5.638-0.909-0.107-1.797-0.385-2.598-0.815-0.054-0.028-0.121-0.028-0.175 0.002s-0.088 0.085-0.090 0.146v0.092c0 3.173 2.16 5.959 5.233 6.884-0.809 0.125-1.649 0.117-2.475-0.033-0.061-0.012-0.124 0.007-0.166 0.054-0.041 0.045-0.055 0.109-0.036 0.166 0.921 2.785 3.482 4.736 6.464 4.981-2.487 1.764-5.425 2.691-8.532 2.691-0.572 0-1.148-0.032-1.711-0.095-0.081-0.010-0.161 0.037-0.188 0.112s0.002 0.161 0.071 0.202c3.361 2.086 7.246 3.188 11.239 3.188 13.057 0 20.858-10.262 20.858-20.187 0-0.276-0.005-0.55-0.017-0.825 1.409-0.997 2.618-2.218 3.593-3.631 0.043-0.062 0.038-0.147-0.012-0.206z"></path>
</symbol>
<symbol id="icon-youtube" viewBox="0 0 32 32">
<title>icon-youtube</title>
<path d="M41.954 3.769c-1.118-1.988-2.331-2.354-4.801-2.493-2.468-0.167-8.673-0.237-14.048-0.237-5.386 0-11.594 0.070-14.059 0.234-2.465 0.142-3.681 0.505-4.809 2.496-1.151 1.986-1.744 5.407-1.744 11.429 0 0.005 0 0.008 0 0.008 0 0.005 0 0.008 0 0.008v0.005c0 5.996 0.592 9.443 1.744 11.408 1.128 1.988 2.341 2.349 4.806 2.517 2.468 0.144 8.675 0.229 14.061 0.229 5.376 0 11.581-0.085 14.051-0.227 2.47-0.167 3.683-0.528 4.801-2.517 1.162-1.965 1.749-5.412 1.749-11.408 0 0 0-0.008 0-0.013 0 0 0-0.005 0-0.008 0-6.025-0.587-9.445-1.752-11.431zM17.948 22.933v-15.455l12.879 7.727-12.879 7.727z"></path>
</symbol>
<symbol id="icon-arrow-right" viewBox="0 0 32 32">
<title>icon-arrow-right</title>
<path stroke-width="4.5714" stroke-miterlimit="4" stroke-linecap="square" stroke-linejoin="miter" d="M32 4.571l11.429 11.429-11.429 11.429"></path>
<path stroke-width="4.5714" stroke-miterlimit="4" stroke-linecap="square" stroke-linejoin="miter" d="M41.143 16h-36.629"></path>
</symbol>
<symbol id="icon-caret-right" viewBox="0 0 32 32">
<title>icon-caret-right</title>
<path stroke-width="4.5714" stroke-miterlimit="4" stroke-linecap="square" stroke-linejoin="miter" d="M4.571 4.571l11.429 11.429-11.429 11.429"></path>
</symbol>
<symbol id="icon-globe" viewBox="0 0 32 32">
<title>icon-globe</title>
<path d="M16 0c-8.837 0-16 7.163-16 16s7.163 16 16 16 16-7.163 16-16c0-8.837-7.163-16-16-16zM16 30.4c-1.267 0-2.9-2.36-3.898-6.4h7.795c-0.998 4.040-2.631 6.4-3.898 6.4zM11.759 22.4c-0.305-1.656-0.502-3.533-0.543-5.6h9.568c-0.042 2.067-0.238 3.944-0.543 5.6h-8.481zM1.641 16.8h7.976c0.039 1.983 0.218 3.872 0.52 5.6h-7.017c-0.85-1.704-1.368-3.597-1.479-5.6zM16 1.6c1.267 0 2.9 2.36 3.898 6.4h-7.795c0.998-4.040 2.631-6.4 3.898-6.4zM20.241 9.6c0.305 1.656 0.502 3.533 0.543 5.6h-9.568c0.042-2.067 0.238-3.944 0.543-5.6h8.481zM9.616 15.2h-7.976c0.111-2.003 0.629-3.896 1.479-5.6h7.017c-0.302 1.728-0.481 3.617-0.52 5.6zM22.384 16.8h7.976c-0.111 2.003-0.629 3.896-1.479 5.6h-7.017c0.302-1.728 0.481-3.617 0.52-5.6zM22.384 15.2c-0.039-1.983-0.218-3.872-0.52-5.6h7.017c0.85 1.704 1.368 3.597 1.479 5.6h-7.976zM27.965 8h-6.428c-0.59-2.548-1.449-4.659-2.485-6.067 3.698 0.802 6.871 3.023 8.913 6.067zM12.948 1.933c-1.036 1.408-1.895 3.52-2.485 6.067h-6.428c2.043-3.045 5.216-5.266 8.913-6.067zM4.035 24h6.428c0.59 2.548 1.449 4.659 2.485 6.067-3.698-0.802-6.871-3.022-8.914-6.067zM19.052 30.067c1.036-1.408 1.895-3.52 2.485-6.067h6.428c-2.043 3.045-5.216 5.266-8.914 6.067z"></path>
</symbol>
<symbol id="icon-search" viewBox="0 0 32 32">
<title>icon-search</title>
<path d="M23.146 21.905c4.477-4.477 4.477-11.735 0-16.212s-11.735-4.477-16.212 0c-4.477 4.477-4.477 11.735 0 16.212s11.735 4.477 16.212 0zM23.827 24c-5.289 4.566-13.287 4.339-18.307-0.681-5.258-5.258-5.258-13.782 0-19.040s13.782-5.258 19.040 0c5.020 5.020 5.247 13.018 0.681 18.307l7.89 7.89-1.414 1.414-7.89-7.89z"></path>
</symbol>
<symbol id="icon-minus" viewBox="0 0 32 32">
<title>icon-minus</title>
<path stroke-width="3.2" stroke-miterlimit="4" stroke-linecap="square" stroke-linejoin="miter" d="M28.023 16h-25.64"></path>
</symbol>
<symbol id="icon-filter" viewBox="0 0 32 32">
<title>icon-filter</title>
<path d="M3.245 0.32l11.203 11.203v12.029c0 0.685 0.646 1.891 1.213 2.269l4.195 2.797c0.016 0.013 0.019 0.013 0.003 0.006-0.058-0.026-0.138-0.048-0.237-0.064-0.342-0.054-0.752 0.006-1.142 0.214s-0.666 0.515-0.813 0.832c-0.067 0.147-0.083 0.224-0.083 0.227v-18.346l11.171-11.168h0.016c-0.029 0.048-0.058 0.109-0.090 0.186-0.182 0.454-0.208 1.053 0.048 1.667 0.253 0.611 0.694 1.018 1.146 1.206 0.077 0.032 0.141 0.054 0.195 0.067l-0.010 0.010-28.125-0.010c0.051-0.013 0.118-0.035 0.192-0.067 0.448-0.192 0.893-0.595 1.146-1.21s0.227-1.213 0.045-1.667c-0.032-0.077-0.061-0.138-0.090-0.182h0.016zM20.726 12.787v0 0 17.043c0 1.731-1.168 2.355-2.611 1.395l-4.195-2.797c-1.44-0.96-2.611-3.146-2.611-4.88v-10.723l-10.285-10.288c-1.222-1.222-0.813-2.218 0.918-2.218h28.115c1.728 0 2.144 0.992 0.918 2.218l-10.25 10.25z"></path>
</symbol>
<symbol id="icon-cloud-pdf" viewBox="0 0 30 32">
<title>icon-cloud-pdf</title>
<path fill="#da291c" style="fill: var(--color1, #da291c)" d="M27.638 15.565c0.473-1.012 0.721-2.092 0.743-3.24 0.025-1.121-0.197-2.128-0.667-3.022-0.451-0.83-1.15-1.436-2.095-1.817v0.020c-1.004-0.386-2.109-0.426-3.314-0.119-0.228 0.067-0.45 0.040-0.667-0.079-0.207-0.103-0.36-0.268-0.457-0.494-1.026-2.631-2.791-4.185-5.295-4.662-0.803-0.137-1.641-0.163-2.514-0.079l-1.010 0.178c-2.184 0.71-3.708 2.139-4.571 4.286-0.424 1.088-0.633 2.102-0.629 3.042 0.003 0.247-0.073 0.464-0.229 0.652-0.144 0.188-0.335 0.3-0.571 0.336-2.678 0.494-4.107 1.639-4.286 3.437-0.051 0.939 0.152 1.822 0.61 2.647 0.691 0.888 1.751 1.415 3.181 1.58 1.738 0.217 3.122 0.25 4.152 0.099 0.26-0.032 0.495 0.034 0.705 0.198 0.211 0.165 0.331 0.382 0.362 0.652 0.044 0.269-0.014 0.513-0.171 0.731-0.16 0.218-0.369 0.343-0.629 0.375-1.154 0.178-2.703 0.145-4.648-0.099-2.057-0.24-3.555-1.030-4.495-2.37-0.020-0.029-0.039-0.061-0.057-0.099-0.684-1.197-0.989-2.474-0.914-3.832 0.068-2.616 1.769-4.314 5.105-5.096 0.088-0.949 0.335-1.95 0.743-3.002h0.019c1.086-2.736 3.022-4.554 5.81-5.452 0.044-0.013 0.089-0.026 0.133-0.039l1.162-0.198c0.023 0.002 0.042 0.002 0.057 0 1.044-0.101 2.047-0.068 3.010 0.099l0.019 0.020c2.935 0.531 5.069 2.23 6.4 5.096 1.317-0.223 2.536-0.111 3.657 0.336h0.019c1.391 0.554 2.413 1.449 3.067 2.686l0.019 0.020c0.622 1.187 0.921 2.524 0.895 4.010-0.029 1.434-0.34 2.783-0.933 4.049-0.625 1.355-1.463 2.336-2.514 2.943-0.995 0.604-2.214 0.973-3.657 1.106-0.023 0.001-0.048 0.001-0.076 0h-3.429c-0.264 0.001-0.492-0.098-0.686-0.296-0.179-0.187-0.268-0.418-0.267-0.691-0.001-0.274 0.088-0.511 0.267-0.711 0.193-0.185 0.422-0.278 0.686-0.277h3.333c1.134-0.104 2.093-0.387 2.876-0.849 0.727-0.433 1.311-1.124 1.752-2.074zM15.352 10.252c0.267 0 0.495 0.092 0.686 0.277 0.178 0.198 0.267 0.435 0.267 0.711v17.165l4.381-4.425c0.19-0.184 0.419-0.277 0.686-0.277 0.254 0 0.476 0.099 0.667 0.296 0.178 0.198 0.267 0.428 0.267 0.691 0 0.277-0.095 0.514-0.286 0.711l-6 6.064c-0.089 0.092-0.19 0.158-0.305 0.198l-0.362 0.079h-0.019l-0.343-0.079-0.114-0.040-0.095-0.079c-0.038-0.026-0.070-0.059-0.095-0.099h-0.019l-0.038-0.059-5.581-6.005c-0.178-0.198-0.267-0.434-0.267-0.711s0.102-0.507 0.305-0.691c0.178-0.184 0.4-0.277 0.667-0.277s0.489 0.099 0.667 0.296l3.981 4.286v-17.047c0-0.277 0.095-0.514 0.286-0.711 0.178-0.184 0.4-0.277 0.667-0.277z"></path>
</symbol>
</defs>
</svg>
