<?xml version="1.0" encoding="UTF-8"?>
<svg width="140px" height="40px" viewBox="0 0 140 40" version="1.1" xmlns="http://www.w3.org/2000/svg" xmlns:xlink="http://www.w3.org/1999/xlink">
    <!-- Generator: Sketch 52 (66869) - http://www.bohemiancoding.com/sketch -->
    <title>Artboard</title>
    <desc>Created with Sketch.</desc>
    <g id="Artboard" stroke="none" stroke-width="1" fill="none" fill-rule="evenodd">
        <path d="M129.15306,16.8378638 L129.730632,16.8378638 C130.105162,16.8378638 130.345931,16.7536015 130.345931,16.3374415 C130.345931,15.9735315 130.041025,15.8660879 129.730632,15.8660879 L129.15306,15.8660879 L129.15306,16.8378638 Z M128.671521,15.4554473 L129.810888,15.4554473 C130.495812,15.4554473 130.832957,15.7538609 130.832957,16.3609908 C130.832957,16.8753955 130.528052,17.2488724 130.062633,17.2488724 L130.913214,18.6688206 L130.394291,18.6688206 L129.564974,17.2488724 L129.15306,17.2488724 L129.15306,18.6688206 L128.671521,18.6688206 L128.671521,15.4554473 Z M129.650718,19.3977445 C130.816838,19.3977445 131.699659,18.379606 131.699659,17.0656295 C131.699659,15.7538609 130.816838,14.7338825 129.650718,14.7338825 C128.468136,14.7338825 127.58017,15.7538609 127.58017,17.0656295 C127.58017,18.379606 128.468136,19.3977445 129.650718,19.3977445 Z M129.639743,14.3236099 C131.041487,14.3236099 132.186342,15.5540599 132.186342,17.0656295 C132.186342,18.5764633 131.041487,19.8047056 129.639743,19.8047056 C128.238342,19.8047056 127.098632,18.5764633 127.098632,17.0656295 C127.098632,15.5540599 128.238342,14.3236099 129.639743,14.3236099 Z M116.442016,18.9705458 C116.442016,15.8546812 114.585485,14.3085236 111.78234,14.3085236 C108.048357,14.3085236 105.314493,17.971909 105.314493,21.777326 C105.314493,25.4190019 107.518459,27.1333161 110.787366,27.1333161 C112.00699,27.1333161 113.264341,26.822392 114.409195,26.4444996 L114.783382,23.918839 C113.6814,24.4667277 112.509793,24.7997293 111.295657,24.7997293 C109.401742,24.7997293 108.294271,24.0777966 108.155023,22.150435 L108.149878,22.150435 C108.149878,22.0367361 108.139246,21.9278206 108.139246,21.8093383 L108.139246,21.7074141 C108.149878,20.8677349 108.326511,20.0394625 108.620442,19.2766865 C109.187725,17.7165465 109.995434,16.6391667 111.739468,16.6391667 C112.975212,16.6391667 113.611776,17.373978 113.611776,18.6850107 C113.611776,18.9705458 113.595999,19.2317957 113.547639,19.5188025 L109.498118,19.5188025 C109.235741,20.4813795 109.187725,21.1256732 109.182237,21.7074141 L116.15323,21.7074141 C116.32952,20.8037103 116.442016,19.8992707 116.442016,18.9705458 Z M118.496444,16.2358853 C118.581845,15.7111778 118.672734,15.1643929 118.758478,14.5933228 L121.588375,14.5933228 L121.187093,16.9004166 L121.235452,16.9004166 C121.765008,15.5695141 123.220256,14.3085236 124.58976,14.3085236 C124.96429,14.3085236 125.36523,14.3302331 125.718495,14.4251661 L125.098051,17.5428705 C124.76605,17.4232843 124.343503,17.3533723 123.968973,17.3533723 C121.872016,17.3533723 120.860922,19.3741952 120.480904,21.3519671 L119.421794,26.8459413 L116.46328,26.8459413 L118.496444,16.2358853 Z M98.4347322,14.5933228 L100.574561,14.5933228 L101.082852,12.0724456 L104.260527,10.9534866 L103.533075,14.5933228 L106.181194,14.5933228 L105.72092,16.9247018 L103.067656,16.9247018 L101.986938,22.2766444 C101.922801,22.5625474 101.853177,22.9919539 101.853177,23.4669871 C101.853177,24.2051099 102.318596,24.6562259 102.981912,24.6562259 C103.511467,24.6562259 104.041022,24.5381115 104.415553,24.3710588 L103.907605,26.8459413 C103.404458,26.9644236 102.826886,27.1333161 102.318596,27.1333161 C100.312527,27.1333161 98.8946634,26.276343 98.8946634,23.918839 C98.8946634,22.9676687 99.0712962,22.0389438 99.2746811,21.0649602 L100.109142,16.9247018 L97.9693134,16.9247018 L98.4347322,14.5933228 Z M96.5408172,17.0888109 C96.225279,16.9004166 95.4065946,16.6391667 94.5666457,16.6391667 C93.6841678,16.6391667 92.581842,16.9004166 92.581842,17.8755041 C92.581842,19.4223977 96.4231763,19.9956755 96.4231763,22.9919539 C96.4231763,26.1799381 93.839193,27.1333161 91.2980818,27.1333161 C90.1052103,27.1333161 88.9174834,26.9416102 87.8312776,26.3951933 L88.4733292,23.8470872 C89.3132781,24.3467736 90.153227,24.7997293 91.2980818,24.7997293 C92.293056,24.7997293 93.3309022,24.4420746 93.3309022,23.4441737 C93.3309022,21.4678737 89.4899108,21.2780076 89.4899108,18.2096096 C89.4899108,15.3318136 92.0684065,14.3085236 94.4116204,14.3085236 C95.4974833,14.3085236 96.5998091,14.5237788 97.1828688,14.6838403 L96.5408172,17.0888109 Z M60.2741625,15.9507182 C60.3602495,15.474949 60.4511382,14.9730549 60.5156178,14.5933228 L63.2758909,14.5933228 L63.013857,16.2358853 L63.056729,16.2358853 C63.8538059,14.9730549 65.153686,14.3085236 66.5447978,14.3085236 C67.8926945,14.3085236 69.2838063,15.1643929 69.4388316,16.6391667 L69.4817036,16.6391667 C70.2359085,15.0455426 71.8945418,14.3085236 73.4832079,14.3085236 C75.1792256,14.3085236 76.6396186,15.8064788 76.6396186,17.6628247 C76.6396186,18.7530829 76.3720971,19.9956755 76.1261831,20.9928405 L74.9384562,26.8459413 L71.9799429,26.8459413 L73.1731573,20.8728863 C73.3281826,20.1377071 73.5476874,18.994831 73.5476874,18.2567081 C73.5476874,17.3533723 72.9056358,16.7811984 72.1565756,16.7811984 C70.1021477,16.7811984 69.5941999,19.3513819 69.2196698,21.0167577 L68.0480628,26.8459413 L65.0895494,26.8459413 L66.2824209,20.8728863 C66.4377892,20.1377071 66.656951,18.994831 66.656951,18.2567081 C66.656951,17.3533723 66.0148994,16.7811984 65.2661822,16.7811984 C63.259771,16.7811984 62.7034634,19.3741952 62.3289333,21.0167577 L61.1573264,26.8459413 L58.19847,26.8459413 L60.2741625,15.9507182 Z M50.2589121,18.9705458 C50.2589121,15.8546812 48.4037534,14.3085236 45.5992364,14.3085236 C41.8676545,14.3085236 39.1283029,17.971909 39.1283029,21.777326 C39.1283029,25.4190019 41.3353553,27.1333161 44.6046052,27.1333161 C45.8201131,27.1333161 47.079179,26.822392 48.2254058,26.4444996 L48.5999359,23.918839 C47.4969242,24.4667277 46.3290899,24.7997293 45.112896,24.7997293 C43.219667,24.7997293 42.1132255,24.0777966 41.9708903,22.150435 L41.9688325,22.150435 C41.9636878,22.0367361 41.9527126,21.9278206 41.9527126,21.8093383 L41.9551134,21.74237 L41.9540845,21.7074141 L41.9551134,21.7074141 C41.9688325,20.8677349 42.1389487,20.0394625 42.4366521,19.2766865 C43.0046209,17.7165465 43.8102721,16.6391667 45.5553354,16.6391667 C46.791079,16.6391667 47.4327876,17.373978 47.4327876,18.6850107 C47.4327876,18.9705458 47.4101512,19.2317957 47.3631634,19.5188025 L43.3160433,19.5188025 C43.0543524,20.4813795 43.0083936,21.1256732 43.002563,21.7074141 L49.9701261,21.7074141 C50.145044,20.8037103 50.2589121,19.8992707 50.2589121,18.9705458 Z M51.2487417,14.5933228 L53.3885707,14.5933228 L53.8972045,12.0724456 L57.0786525,10.9534866 L56.348113,14.5933228 L59.0000056,14.5933228 L58.5339008,16.9247018 L55.8837231,16.9247018 L54.8023189,22.2766444 C54.7368104,22.5625474 54.6689011,22.9919539 54.6689011,23.4669871 C54.6689011,24.2051099 55.1343199,24.6562259 55.7959212,24.6562259 C56.3275344,24.6562259 56.8564038,24.5381115 57.2329918,24.3710588 L56.724015,26.8459413 C56.2157241,26.9644236 55.6422678,27.1333161 55.1343199,27.1333161 C53.1248219,27.1333161 51.7103877,26.276343 51.7103877,23.918839 C51.7103877,22.9676687 51.8880495,22.0389438 52.0880046,21.0649602 L52.9258957,16.9247018 L50.7822939,16.9247018 L51.2487417,14.5933228 Z M31.5711636,9 L34.5317349,9 L32.563394,19.0430334 L32.6100388,19.0430334 L36.7374153,14.5933228 L40.5801215,14.5933228 L35.1271417,20.18223 L38.549359,26.8459413 L35.2142576,26.8459413 L32.2773518,20.3514905 L32.2337938,20.3514905 L30.9510625,26.8459413 L28.0618303,26.8459413 L31.5711636,9 Z M28.326608,17.4015748 C27.7497219,16.9953497 26.9800831,16.7811984 26.1613988,16.7811984 C23.7979492,16.7811984 22.4733748,19.1607798 22.4733748,21.4678737 C22.4733748,23.0618658 22.9590292,24.6562259 24.9918497,24.6562259 C25.7196453,24.6562259 26.6247597,24.4420746 27.3978282,24.0369533 L27.0665132,26.5600383 C26.1613988,27.0350715 25.189404,27.1333161 24.2177522,27.1333161 C21.2829042,27.1333161 19.3838445,25.0149845 19.3838445,21.8498136 C19.3838445,17.5664198 22.008985,14.3085236 26.0955473,14.3085236 C27.1999309,14.3085236 28.2597276,14.5237788 29.0544037,14.7842927 L28.326608,17.4015748 Z M17.5139378,9.30908434 L20.4717653,9.30908434 L19.8530361,12.3561408 L16.8934937,12.3561408 L17.5139378,9.30908434 Z M16.4301328,14.5933228 L19.3879602,14.5933228 L16.9596882,26.8459413 L14.0025467,26.8459413 L16.4301328,14.5933228 Z M7.46301798,14.5933228 L9.60456186,14.5933228 L10.1152535,12.0724456 L13.2932717,10.9534866 L12.5644472,14.5933228 L15.2153108,14.5933228 L14.7519499,16.9247018 L12.1000573,16.9247018 L11.0203679,22.2766444 C10.9538305,22.5625474 10.8855783,22.9919539 10.8855783,23.4669871 C10.8855783,24.2051099 11.351683,24.6562259 12.0129413,24.6562259 C12.5424967,24.6562259 13.072738,24.5381115 13.448297,24.3710588 L12.9410351,26.8459413 C12.4324013,26.9644236 11.857916,27.1333161 11.351683,27.1333161 C9.3408131,27.1333161 7.92603595,26.276343 7.92603595,23.918839 C7.92603595,22.9676687 8.10438362,22.0389438 8.30296688,21.0649602 L9.14257282,16.9247018 L7,16.9247018 L7.46301798,14.5933228 Z M81.2842034,24.8081924 C83.4936566,24.8081924 84.1730926,23.1696774 84.6385114,21.1959531 L83.6006652,21.1959531 C82.1670243,21.1959531 79.7809383,21.4557311 79.7809383,23.5265962 C79.7809383,24.3828334 80.5299985,24.8081924 81.2842034,24.8081924 Z M84.1730926,24.9785567 L84.1305635,24.9785567 C83.1194694,26.3580296 82.0974001,27.1425151 80.465862,27.1425151 C78.4114341,27.1425151 76.9565287,25.9058097 76.9565287,23.6447106 C76.9565287,19.601593 81.1507856,19.2910368 83.9323232,19.2910368 L84.9705124,19.2910368 C85.0559135,18.9587712 85.0559135,18.6014844 85.0559135,18.2434617 C85.0559135,17.0071243 83.8256576,16.6491016 82.7823238,16.6491016 C81.4824437,16.6491016 80.2250926,17.0071243 79.0534856,17.6024796 L79.4708878,15.0551095 C80.7333835,14.5789724 82.011999,14.3177225 83.3386313,14.3177225 C85.612221,14.3177225 87.75205,15.2221622 87.75205,18.0999582 C87.75205,19.7410489 86.6288027,24.5495182 86.3612812,26.8566121 L83.8681867,26.8566121 L84.1730926,24.9785567 Z" id="Ticketmaster-01" fill="#FFFFFF"></path>
    </g>
</svg>