<?xml version="1.0" encoding="UTF-8"?>
<svg width="31px" height="30px" viewBox="0 0 31 30" version="1.1" xmlns="http://www.w3.org/2000/svg" xmlns:xlink="http://www.w3.org/1999/xlink">
    <!-- Generator: Sketch 50.2 (55047) - http://www.bohemiancoding.com/sketch -->
    <title>twitter-icon</title>
    <desc>Created with Sketch.</desc>
    <defs></defs>
    <g id="Pages" stroke="none" stroke-width="1" fill="none" fill-rule="evenodd">
        <g id="twitter-icon" fill="#000000">
            <path d="M31,14.9995638 C31,23.2844805 24.0606299,30 15.5004507,30 C6.9402716,30 0,23.2844805 0,14.9995638 C0,6.7155195 6.9402716,0 15.5004507,0 C24.0606299,0 31,6.7155195 31,14.9995638" id="Fill-1" opacity="0.08"></path>
            <path d="M23.9539035,10.2504878 C23.9312206,10.224878 23.8941718,10.2160976 23.8624157,10.2307317 C23.3951474,10.4312195 22.9021718,10.5753659 22.3948303,10.6617073 C22.9339279,10.2687805 23.3346596,9.72585366 23.5403181,9.10390244 C23.5501474,9.07463415 23.5403181,9.04170732 23.5146108,9.02195122 C23.4896596,9.00292683 23.4548791,9 23.4269035,9.01609756 C22.8205132,9.36439024 22.1634645,9.6095122 21.4739035,9.74634146 C20.8629767,9.13243902 20.0093425,8.7804878 19.1254645,8.7804878 C17.3289767,8.7804878 15.8681962,10.194878 15.8681962,11.9334146 C15.8681962,12.1434146 15.8886108,12.3519512 15.9309523,12.5539024 C13.4426352,12.4053659 11.116123,11.2492683 9.53361081,9.37170732 C9.51773276,9.35195122 9.49353764,9.34170732 9.46783032,9.34463415 C9.442123,9.34609756 9.41944008,9.36 9.40658642,9.38195122 C9.11775715,9.8604878 8.96502544,10.4085366 8.96502544,10.9668293 C8.96502544,11.9326829 9.41868398,12.8363415 10.1914157,13.4334146 C9.79370837,13.3865854 9.40507422,13.265122 9.05500105,13.0770732 C9.03156203,13.0646341 9.00207422,13.0646341 8.9786352,13.0778049 C8.95519617,13.0909756 8.94007422,13.115122 8.93931813,13.1414634 L8.93931813,13.1817073 C8.93931813,14.5697561 9.88444008,15.7887805 11.2287815,16.1934146 C10.8749279,16.2482927 10.5074645,16.2446341 10.1460498,16.1787805 C10.1195864,16.1736585 10.0916108,16.1817073 10.0734645,16.2021951 C10.0553181,16.2219512 10.0492693,16.2497561 10.0575864,16.2746341 C10.4605864,17.4929268 11.581123,18.3468293 12.8853913,18.4536585 C11.7973669,19.2256098 10.5120011,19.6309756 9.15253764,19.6309756 C8.90226935,19.6309756 8.65048886,19.6170732 8.40400105,19.5892683 C8.36846447,19.584878 8.33368398,19.6053659 8.32158642,19.6382927 C8.30948886,19.6712195 8.32234252,19.7085366 8.35258642,19.7268293 C9.82319617,20.6392683 11.5229035,21.1214634 13.2694889,21.1214634 C18.9818059,21.1214634 22.3948303,16.6317073 22.3948303,12.2897561 C22.3948303,12.1690244 22.392562,12.0490244 22.3872693,11.9290244 C23.0034889,11.4929268 23.5327572,10.9587805 23.9591962,10.3404878 C23.9780986,10.3134146 23.9758303,10.2760976 23.9539035,10.2504878" id="Fill-4"></path>
        </g>
    </g>
</svg>