<?xml version="1.0" encoding="UTF-8"?>
<svg width="30px" height="30px" viewBox="0 0 30 30" version="1.1" xmlns="http://www.w3.org/2000/svg" xmlns:xlink="http://www.w3.org/1999/xlink">
    <!-- Generator: Sketch 50.2 (55047) - http://www.bohemiancoding.com/sketch -->
    <title>youtube-icon</title>
    <desc>Created with Sketch.</desc>
    <defs></defs>
    <g id="Pages" stroke="none" stroke-width="1" fill="none" fill-rule="evenodd">
        <g id="youtube-icon" fill="#000000">
            <path d="M15,0 C6.71553403,0 0,6.71571079 0,15.0003948 C0,23.2850788 6.71553403,30 15,30 C23.2836764,30 30,23.2850788 30,15.0003948 C30,6.71571079 23.2836764,0 15,0" id="Fill-18" opacity="0.08"></path>
            <path d="M21.4217262,11.2956845 C21.0374554,10.6121429 20.6204241,10.4864137 19.7713095,10.4386012 C18.9230804,10.3810491 16.7901116,10.3571429 14.942247,10.3571429 C13.0908408,10.3571429 10.9569866,10.3810491 10.1096429,10.4377158 C9.26229911,10.4864137 8.84438244,10.6112574 8.45656994,11.2956845 C8.06078869,11.9783408 7.85714286,13.1541741 7.85714286,15.2242783 C7.85714286,15.2260491 7.85714286,15.2269345 7.85714286,15.2269345 C7.85714286,15.2287054 7.85714286,15.2295908 7.85714286,15.2295908 L7.85714286,15.2313616 C7.85714286,17.2926116 8.06078869,18.4772991 8.45656994,19.152872 C8.84438244,19.8364137 9.26141369,19.960372 10.1087574,20.0179241 C10.9569866,20.0675074 13.0908408,20.0967262 14.942247,20.0967262 C16.7901116,20.0967262 18.9230804,20.0675074 19.7721949,20.0188095 C20.6213095,19.9612574 21.0383408,19.8372991 21.4226116,19.1537574 C21.8219345,18.4781845 22.0238095,17.293497 22.0238095,15.232247 C22.0238095,15.232247 22.0238095,15.2295908 22.0238095,15.2278199 C22.0238095,15.2278199 22.0238095,15.2260491 22.0238095,15.2251637 C22.0238095,13.1541741 21.8219345,11.9783408 21.4217262,11.2956845 Z M13.1696429,17.8831845 L13.1696429,12.5706845 L17.5967262,15.2269345 L13.1696429,17.8831845 Z" id="Shape" fill-rule="nonzero"></path>
        </g>
    </g>
</svg>